{"title":"Inglourious Basterds (2009) + Bonus 30' XviD - Ita Eng Ac3 5.1 -","uid":8455717,"size":2435182450,"categoryP":"video","categoryS":"movies","magnet":"?xt=urn:btih:b907a52da13080f94ca68faffa57d48aedebdf72&amp;dn=Inglourious+Basterds+%282009%29+%2B+Bonus+30%27+XviD+-+Ita+Eng+Ac3+5.1+-&amp;tr=udp%3A%2F%2Ftracker.openbittorrent.com%3A80&amp;tr=udp%3A%2F%2Fopen.demonii.com%3A1337&amp;tr=udp%3A%2F%2Ftracker.coppersurfer.tk%3A6969&amp;tr=udp%3A%2F%2Fexodus.desync.com%3A6969","seeders":0,"leechers":1,"uploader":null,"files":15,"time":1368060258,"description":"\nGeneral\nComplete name : F:Bastardi Senza Gloria - Inglourious Basterds (2009)Bastardi Senza Gloria - Inglourious Basterds (2009).avi\nFormat : AVI\nFormat/Info : Audio Video Interleave\nFormat profile : OpenDML\nFile size : 1.99 GiB\nDuration : 2h 26mn\nOverall bit rate : 1 947 Kbps\nWriting application : VirtualDubMod 1.5.4.1 (build 2178/release)\nWriting library : VirtualDubMod build 2178/release\n\nVideo\nID : 0\nFormat : MPEG-4 Visual\nFormat profile : Advanced Simple@L5\nFormat settings, BVOP : No\nFormat settings, QPel : No\nFormat settings, GMC : No warppoints\nFormat settings, Matrix : Custom\nCodec ID : XVID\nCodec ID/Hint : XviD\nDuration : 2h 26mn\nBit rate : 1 167 Kbps\nWidth : 720 pixels\nHeight : 304 pixels\nDisplay aspect ratio : 2.35:1\nFrame rate : 25.000 fps\nColor space : YUV\nChroma subsampling : 4:2:0\nBit depth : 8 bits\nScan type : Progressive\nBits/(Pixel*Frame) : 0.213\nStream size : 1.19 GiB (60%)\nWriting library : XviD 1.2.1 (UTC 2008-12-04)\n\nAudio #1\nID : 1\nFormat : AC-3\nFormat/Info : Audio Coding 3\nMode extension : CM (complete main)\nCodec ID : 2000\nDuration : 2h 26mn\nBit rate mode : Constant\nBit rate : 384 Kbps\nChannel(s) : 6 channels\nChannel positions : Front: L C R, Side: L R, LFE\nSampling rate : 48.0 KHz\nBit depth : 16 bits\nStream size : 403 MiB (20%)\nAlignment : Aligned on interleaves\nInterleave, duration : 96 ms (2.40 video frames)\nInterleave, preload duration : 96 ms\nLanguage : Italian\n\nAudio #2\nID : 2\nFormat : AC-3\nFormat/Info : Audio Coding 3\nMode extension : CM (complete main)\nCodec ID : 2000\nDuration : 2h 26mn\nBit rate mode : Constant\nBit rate : 384 Kbps\nChannel(s) : 6 channels\nChannel positions : Front: L C R, Side: L R, LFE\nSampling rate : 48.0 KHz\nBit depth : 16 bits\nStream size : 403 MiB (20%)\nAlignment : Aligned on interleaves\nInterleave, duration : 96 ms (2.40 video frames)\nInterleave, preload duration : 96 ms\nLanguage : English","torrent":{"xt":"urn:btih:b907a52da13080f94ca68faffa57d48aedebdf72","amp;dn":"Inglourious+Basterds+%282009%29+%2B+Bonus+30%27+XviD+-+Ita+Eng+Ac3+5.1+-","amp;tr":["udp%3A%2F%2Ftracker.openbittorrent.com%3A80","udp%3A%2F%2Fopen.demonii.com%3A1337","udp%3A%2F%2Ftracker.coppersurfer.tk%3A6969","udp%3A%2F%2Fexodus.desync.com%3A6969"],"infoHash":"b907a52da13080f94ca68faffa57d48aedebdf72","infoHashBuffer":{"type":"Buffer","data":[185,7,165,45,161,48,128,249,76,166,143,175,250,87,212,138,237,235,223,114]},"announce":[],"urlList":[]}}